<?xml version="1.0" encoding="UTF-8" standalone="no"?>
<svg
   width="24"
   height="24"
   viewBox="0 0 24 24"
   fill="none"
   version="1.1"
   id="svg6"
   sodipodi:docname="copy.svg"
   inkscape:version="1.2.1 (9c6d41e410, 2022-07-14)"
   xmlns:inkscape="http://www.inkscape.org/namespaces/inkscape"
   xmlns:sodipodi="http://sodipodi.sourceforge.net/DTD/sodipodi-0.dtd"
   xmlns="http://www.w3.org/2000/svg"
   xmlns:svg="http://www.w3.org/2000/svg">
  <defs
     id="defs10" />
  <sodipodi:namedview
     id="namedview8"
     pagecolor="#ffffff"
     bordercolor="#000000"
     borderopacity="0.25"
     inkscape:showpageshadow="2"
     inkscape:pageopacity="0.0"
     inkscape:pagecheckerboard="0"
     inkscape:deskcolor="#d1d1d1"
     showgrid="false"
     inkscape:zoom="30"
     inkscape:cx="12.016667"
     inkscape:cy="12.016667"
     inkscape:window-width="1854"
     inkscape:window-height="1020"
     inkscape:window-x="0"
     inkscape:window-y="0"
     inkscape:window-maximized="1"
     inkscape:current-layer="svg6" />
  <path
     d="M16 12.9V17.1C16 20.6 14.6 22 11.1 22H6.9C3.4 22 2 20.6 2 17.1V12.9C2 9.4 3.4 8 6.9 8H11.1C14.6 8 16 9.4 16 12.9Z"
     fill="#292D32"
     id="path2"
     style="fill:#241c1c" />
  <path
     opacity="0.4"
     d="M17.0998 2H12.8998C9.44976 2 8.04977 3.37 8.00977 6.75H11.0998C15.2998 6.75 17.2498 8.7 17.2498 12.9V15.99C20.6298 15.95 21.9998 14.55 21.9998 11.1V6.9C21.9998 3.4 20.5998 2 17.0998 2Z"
     fill="#292D32"
     id="path4"
     style="fill:#502d16" />
</svg>
