<svg xmlns="http://www.w3.org/2000/svg" version="1.1" xmlns:xlink="http://www.w3.org/1999/xlink" xmlns:svgjs="http://svgjs.com/svgjs" width="1440" height="560" preserveAspectRatio="none" viewBox="0 0 1440 560"><g mask="url(&quot;#SvgjsMask1188&quot;)" fill="none"><rect width="1440" height="560" x="0" y="0" fill="url(#SvgjsRadialGradient1189)"></rect><path d="M-40.08 353.03L-40.08 353.03" stroke="#132e65" stroke-width="1.5"></path><path d="M-40.08 353.03L69.76 401.59" stroke="#132e65" stroke-width="1.5"></path><path d="M-54.29 524.9L-54.29 524.9" stroke="#132e65" stroke-width="1.5"></path><path d="M-54.29 524.9L-69.21 674.54" stroke="#132e65" stroke-width="1.5"></path><path d="M-54.29 524.9L101.14 520.72" stroke="#132e65" stroke-width="1.5"></path><path d="M-54.29 524.9L-40.08 353.03" stroke="#132e65" stroke-width="1.5"></path><path d="M-54.29 524.9L69.76 401.59" stroke="#132e65" stroke-width="1.5"></path><path d="M-54.29 524.9L71.7 655.65" stroke="#132e65" stroke-width="1.5"></path><path d="M-69.21 674.54L-69.21 674.54" stroke="#132e65" stroke-width="1.5"></path><path d="M-69.21 674.54L71.7 655.65" stroke="#132e65" stroke-width="1.5"></path><path d="M-69.21 674.54L101.14 520.72" stroke="#132e65" stroke-width="1.5"></path><path d="M-69.21 674.54L233.94 668.07" stroke="#132e65" stroke-width="1.5"></path><path d="M-69.21 674.54L69.76 401.59" stroke="#132e65" stroke-width="1.5"></path><path d="M69.76 401.59L69.76 401.59" stroke="#132e65" stroke-width="1.5"></path><path d="M69.76 401.59L101.14 520.72" stroke="#132e65" stroke-width="1.5"></path><path d="M69.76 401.59L237.81 389.79" stroke="#132e65" stroke-width="1.5"></path><path d="M101.14 520.72L101.14 520.72" stroke="#132e65" stroke-width="1.5"></path><path d="M101.14 520.72L221.27 534.66" stroke="#132e65" stroke-width="1.5"></path><path d="M101.14 520.72L71.7 655.65" stroke="#132e65" stroke-width="1.5"></path><path d="M101.14 520.72L237.81 389.79" stroke="#132e65" stroke-width="1.5"></path><path d="M101.14 520.72L233.94 668.07" stroke="#132e65" stroke-width="1.5"></path><path d="M71.7 655.65L71.7 655.65" stroke="#132e65" stroke-width="1.5"></path><path d="M71.7 655.65L233.94 668.07" stroke="#132e65" stroke-width="1.5"></path><path d="M71.7 655.65L221.27 534.66" stroke="#132e65" stroke-width="1.5"></path><path d="M237.81 389.79L237.81 389.79" stroke="#132e65" stroke-width="1.5"></path><path d="M237.81 389.79L221.27 534.66" stroke="#132e65" stroke-width="1.5"></path><path d="M237.81 389.79L385.55 357.28" stroke="#132e65" stroke-width="1.5"></path><path d="M237.81 389.79L233.94 668.07" stroke="#132e65" stroke-width="1.5"></path><path d="M237.81 389.79L-40.08 353.03" stroke="#132e65" stroke-width="1.5"></path><path d="M221.27 534.66L221.27 534.66" stroke="#132e65" stroke-width="1.5"></path><path d="M221.27 534.66L233.94 668.07" stroke="#132e65" stroke-width="1.5"></path><path d="M221.27 534.66L69.76 401.59" stroke="#132e65" stroke-width="1.5"></path><path d="M221.27 534.66L385.55 357.28" stroke="#132e65" stroke-width="1.5"></path><path d="M233.94 668.07L233.94 668.07" stroke="#132e65" stroke-width="1.5"></path><path d="M233.94 668.07L487.57 639.62" stroke="#132e65" stroke-width="1.5"></path><path d="M385.55 357.28L385.55 357.28" stroke="#132e65" stroke-width="1.5"></path><path d="M385.55 357.28L556.96 354.31" stroke="#132e65" stroke-width="1.5"></path><path d="M385.55 357.28L516.39 496.38" stroke="#132e65" stroke-width="1.5"></path><path d="M556.96 354.31L556.96 354.31" stroke="#132e65" stroke-width="1.5"></path><path d="M556.96 354.31L680.47 362.21" stroke="#132e65" stroke-width="1.5"></path><path d="M556.96 354.31L516.39 496.38" stroke="#132e65" stroke-width="1.5"></path><path d="M556.96 354.31L680.42 235.74" stroke="#132e65" stroke-width="1.5"></path><path d="M556.96 354.31L804.75 219.88" stroke="#132e65" stroke-width="1.5"></path><path d="M556.96 354.31L843.87 373.29" stroke="#132e65" stroke-width="1.5"></path><path d="M516.39 496.38L516.39 496.38" stroke="#132e65" stroke-width="1.5"></path><path d="M516.39 496.38L487.57 639.62" stroke="#132e65" stroke-width="1.5"></path><path d="M516.39 496.38L680.47 362.21" stroke="#132e65" stroke-width="1.5"></path><path d="M516.39 496.38L662.94 697.83" stroke="#132e65" stroke-width="1.5"></path><path d="M516.39 496.38L221.27 534.66" stroke="#132e65" stroke-width="1.5"></path><path d="M487.57 639.62L487.57 639.62" stroke="#132e65" stroke-width="1.5"></path><path d="M487.57 639.62L662.94 697.83" stroke="#132e65" stroke-width="1.5"></path><path d="M487.57 639.62L221.27 534.66" stroke="#132e65" stroke-width="1.5"></path><path d="M487.57 639.62L556.96 354.31" stroke="#132e65" stroke-width="1.5"></path><path d="M680.42 235.74L680.42 235.74" stroke="#132e65" stroke-width="1.5"></path><path d="M680.42 235.74L804.75 219.88" stroke="#132e65" stroke-width="1.5"></path><path d="M680.42 235.74L680.47 362.21" stroke="#132e65" stroke-width="1.5"></path><path d="M680.42 235.74L843.87 373.29" stroke="#132e65" stroke-width="1.5"></path><path d="M680.42 235.74L949.81 236.23" stroke="#132e65" stroke-width="1.5"></path><path d="M680.42 235.74L516.39 496.38" stroke="#132e65" stroke-width="1.5"></path><path d="M680.47 362.21L680.47 362.21" stroke="#132e65" stroke-width="1.5"></path><path d="M680.47 362.21L843.87 373.29" stroke="#132e65" stroke-width="1.5"></path><path d="M680.47 362.21L804.75 219.88" stroke="#132e65" stroke-width="1.5"></path><path d="M662.94 697.83L662.94 697.83" stroke="#132e65" stroke-width="1.5"></path><path d="M662.94 697.83L852.34 660.64" stroke="#132e65" stroke-width="1.5"></path><path d="M662.94 697.83L842.97 557.98" stroke="#132e65" stroke-width="1.5"></path><path d="M662.94 697.83L982.15 640.48" stroke="#132e65" stroke-width="1.5"></path><path d="M804.75 219.88L804.75 219.88" stroke="#132e65" stroke-width="1.5"></path><path d="M804.75 219.88L949.81 236.23" stroke="#132e65" stroke-width="1.5"></path><path d="M804.75 219.88L843.87 373.29" stroke="#132e65" stroke-width="1.5"></path><path d="M843.87 373.29L843.87 373.29" stroke="#132e65" stroke-width="1.5"></path><path d="M843.87 373.29L996.59 355.59" stroke="#132e65" stroke-width="1.5"></path><path d="M842.97 557.98L842.97 557.98" stroke="#132e65" stroke-width="1.5"></path><path d="M842.97 557.98L852.34 660.64" stroke="#132e65" stroke-width="1.5"></path><path d="M842.97 557.98L982.15 640.48" stroke="#132e65" stroke-width="1.5"></path><path d="M852.34 660.64L852.34 660.64" stroke="#132e65" stroke-width="1.5"></path><path d="M852.34 660.64L982.15 640.48" stroke="#132e65" stroke-width="1.5"></path><path d="M852.34 660.64L1130.28 647.31" stroke="#132e65" stroke-width="1.5"></path><path d="M972.93 -53.5L972.93 -53.5" stroke="#132e65" stroke-width="1.5"></path><path d="M972.93 -53.5L947.51 51.39" stroke="#132e65" stroke-width="1.5"></path><path d="M972.93 -53.5L1129 -82.94" stroke="#132e65" stroke-width="1.5"></path><path d="M972.93 -53.5L1099.34 73.47" stroke="#132e65" stroke-width="1.5"></path><path d="M947.51 51.39L947.51 51.39" stroke="#132e65" stroke-width="1.5"></path><path d="M947.51 51.39L1099.34 73.47" stroke="#132e65" stroke-width="1.5"></path><path d="M947.51 51.39L949.81 236.23" stroke="#132e65" stroke-width="1.5"></path><path d="M949.81 236.23L949.81 236.23" stroke="#132e65" stroke-width="1.5"></path><path d="M949.81 236.23L996.59 355.59" stroke="#132e65" stroke-width="1.5"></path><path d="M949.81 236.23L1094.44 214.83" stroke="#132e65" stroke-width="1.5"></path><path d="M996.59 355.59L996.59 355.59" stroke="#132e65" stroke-width="1.5"></path><path d="M996.59 355.59L1129.55 376.51" stroke="#132e65" stroke-width="1.5"></path><path d="M996.59 355.59L1094.44 214.83" stroke="#132e65" stroke-width="1.5"></path><path d="M982.15 640.48L982.15 640.48" stroke="#132e65" stroke-width="1.5"></path><path d="M982.15 640.48L1130.28 647.31" stroke="#132e65" stroke-width="1.5"></path><path d="M982.15 640.48L1152.61 561.28" stroke="#132e65" stroke-width="1.5"></path><path d="M982.15 640.48L996.59 355.59" stroke="#132e65" stroke-width="1.5"></path><path d="M1129 -82.94L1129 -82.94" stroke="#132e65" stroke-width="1.5"></path><path d="M1129 -82.94L1279.01 -101.71" stroke="#132e65" stroke-width="1.5"></path><path d="M1099.34 73.47L1099.34 73.47" stroke="#132e65" stroke-width="1.5"></path><path d="M1099.34 73.47L1094.44 214.83" stroke="#132e65" stroke-width="1.5"></path><path d="M1099.34 73.47L1129 -82.94" stroke="#132e65" stroke-width="1.5"></path><path d="M1099.34 73.47L1272.88 52.02" stroke="#132e65" stroke-width="1.5"></path><path d="M1094.44 214.83L1094.44 214.83" stroke="#132e65" stroke-width="1.5"></path><path d="M1094.44 214.83L1129.55 376.51" stroke="#132e65" stroke-width="1.5"></path><path d="M1129.55 376.51L1129.55 376.51" stroke="#132e65" stroke-width="1.5"></path><path d="M1129.55 376.51L1260.41 377.88" stroke="#132e65" stroke-width="1.5"></path><path d="M1152.61 561.28L1152.61 561.28" stroke="#132e65" stroke-width="1.5"></path><path d="M1152.61 561.28L1130.28 647.31" stroke="#132e65" stroke-width="1.5"></path><path d="M1152.61 561.28L1277.78 542.56" stroke="#132e65" stroke-width="1.5"></path><path d="M1130.28 647.31L1130.28 647.31" stroke="#132e65" stroke-width="1.5"></path><path d="M1130.28 647.31L1277.78 542.56" stroke="#132e65" stroke-width="1.5"></path><path d="M1279.01 -101.71L1279.01 -101.71" stroke="#132e65" stroke-width="1.5"></path><path d="M1272.88 52.02L1272.88 52.02" stroke="#132e65" stroke-width="1.5"></path><path d="M1272.88 52.02L1279.01 -101.71" stroke="#132e65" stroke-width="1.5"></path><path d="M1272.88 52.02L1442.62 50.73" stroke="#132e65" stroke-width="1.5"></path><path d="M1272.88 52.02L1129 -82.94" stroke="#132e65" stroke-width="1.5"></path><path d="M1260.41 377.88L1260.41 377.88" stroke="#132e65" stroke-width="1.5"></path><path d="M1277.78 542.56L1277.78 542.56" stroke="#132e65" stroke-width="1.5"></path><path d="M1277.78 542.56L1432 512.77" stroke="#132e65" stroke-width="1.5"></path><path d="M1277.78 542.56L1260.41 377.88" stroke="#132e65" stroke-width="1.5"></path><path d="M1277.78 542.56L1423.65 655.1" stroke="#132e65" stroke-width="1.5"></path><path d="M1454.13 -52.74L1454.13 -52.74" stroke="#132e65" stroke-width="1.5"></path><path d="M1454.13 -52.74L1548.16 -86.44" stroke="#132e65" stroke-width="1.5"></path><path d="M1454.13 -52.74L1442.62 50.73" stroke="#132e65" stroke-width="1.5"></path><path d="M1442.62 50.73L1442.62 50.73" stroke="#132e65" stroke-width="1.5"></path><path d="M1442.62 50.73L1426.47 191.4" stroke="#132e65" stroke-width="1.5"></path><path d="M1426.47 191.4L1426.47 191.4" stroke="#132e65" stroke-width="1.5"></path><path d="M1426.47 191.4L1549.87 191.56" stroke="#132e65" stroke-width="1.5"></path><path d="M1437.67 349.3L1437.67 349.3" stroke="#132e65" stroke-width="1.5"></path><path d="M1437.67 349.3L1426.47 191.4" stroke="#132e65" stroke-width="1.5"></path><path d="M1437.67 349.3L1432 512.77" stroke="#132e65" stroke-width="1.5"></path><path d="M1437.67 349.3L1260.41 377.88" stroke="#132e65" stroke-width="1.5"></path><path d="M1437.67 349.3L1610.26 401.32" stroke="#132e65" stroke-width="1.5"></path><path d="M1437.67 349.3L1549.87 191.56" stroke="#132e65" stroke-width="1.5"></path><path d="M1437.67 349.3L1567.92 497.75" stroke="#132e65" stroke-width="1.5"></path><path d="M1432 512.77L1432 512.77" stroke="#132e65" stroke-width="1.5"></path><path d="M1432 512.77L1567.92 497.75" stroke="#132e65" stroke-width="1.5"></path><path d="M1432 512.77L1423.65 655.1" stroke="#132e65" stroke-width="1.5"></path><path d="M1423.65 655.1L1423.65 655.1" stroke="#132e65" stroke-width="1.5"></path><path d="M1423.65 655.1L1571.26 680.73" stroke="#132e65" stroke-width="1.5"></path><path d="M1548.16 -86.44L1548.16 -86.44" stroke="#132e65" stroke-width="1.5"></path><path d="M1548.16 -86.44L1442.62 50.73" stroke="#132e65" stroke-width="1.5"></path><path d="M1548.16 -86.44L1576.28 109.96" stroke="#132e65" stroke-width="1.5"></path><path d="M1548.16 -86.44L1279.01 -101.71" stroke="#132e65" stroke-width="1.5"></path><path d="M1576.28 109.96L1576.28 109.96" stroke="#132e65" stroke-width="1.5"></path><path d="M1576.28 109.96L1549.87 191.56" stroke="#132e65" stroke-width="1.5"></path><path d="M1576.28 109.96L1442.62 50.73" stroke="#132e65" stroke-width="1.5"></path><path d="M1576.28 109.96L1426.47 191.4" stroke="#132e65" stroke-width="1.5"></path><path d="M1576.28 109.96L1454.13 -52.74" stroke="#132e65" stroke-width="1.5"></path><path d="M1549.87 191.56L1549.87 191.56" stroke="#132e65" stroke-width="1.5"></path><path d="M1610.26 401.32L1610.26 401.32" stroke="#132e65" stroke-width="1.5"></path><path d="M1610.26 401.32L1567.92 497.75" stroke="#132e65" stroke-width="1.5"></path><path d="M1610.26 401.32L1432 512.77" stroke="#132e65" stroke-width="1.5"></path><path d="M1567.92 497.75L1567.92 497.75" stroke="#132e65" stroke-width="1.5"></path><path d="M1567.92 497.75L1571.26 680.73" stroke="#132e65" stroke-width="1.5"></path><path d="M1567.92 497.75L1423.65 655.1" stroke="#132e65" stroke-width="1.5"></path><path d="M1567.92 497.75L1277.78 542.56" stroke="#132e65" stroke-width="1.5"></path><path d="M1571.26 680.73L1571.26 680.73" stroke="#132e65" stroke-width="1.5"></path><path d="M1571.26 680.73L1432 512.77" stroke="#132e65" stroke-width="1.5"></path><path d="M1571.26 680.73L1610.26 401.32" stroke="#132e65" stroke-width="1.5"></path><path d="M1571.26 680.73L1277.78 542.56" stroke="#132e65" stroke-width="1.5"></path><circle r="5" cx="-40.08" cy="353.03" fill="#132e65"></circle><circle r="5" cx="-54.29" cy="524.9" fill="#132e65"></circle><circle r="5" cx="-69.21" cy="674.54" fill="#132e65"></circle><circle r="5" cx="69.76" cy="401.59" fill="#132e65"></circle><circle r="5" cx="101.14" cy="520.72" fill="#132e65"></circle><circle r="5" cx="71.7" cy="655.65" fill="#132e65"></circle><circle r="5" cx="237.81" cy="389.79" fill="#132e65"></circle><circle r="5" cx="221.27" cy="534.66" fill="#132e65"></circle><circle r="5" cx="233.94" cy="668.07" fill="#132e65"></circle><circle r="5" cx="385.55" cy="357.28" fill="#132e65"></circle><circle r="5" cx="556.96" cy="354.31" fill="#132e65"></circle><circle r="5" cx="516.39" cy="496.38" fill="#132e65"></circle><circle r="5" cx="487.57" cy="639.62" fill="#132e65"></circle><circle r="5" cx="680.42" cy="235.74" fill="#132e65"></circle><circle r="5" cx="680.47" cy="362.21" fill="#132e65"></circle><circle r="5" cx="662.94" cy="697.83" fill="#132e65"></circle><circle r="5" cx="804.75" cy="219.88" fill="#132e65"></circle><circle r="5" cx="843.87" cy="373.29" fill="#132e65"></circle><circle r="5" cx="842.97" cy="557.98" fill="#132e65"></circle><circle r="5" cx="852.34" cy="660.64" fill="#132e65"></circle><circle r="5" cx="972.93" cy="-53.5" fill="#132e65"></circle><circle r="5" cx="947.51" cy="51.39" fill="#132e65"></circle><circle r="5" cx="949.81" cy="236.23" fill="#132e65"></circle><circle r="5" cx="996.59" cy="355.59" fill="#132e65"></circle><circle r="5" cx="982.15" cy="640.48" fill="#132e65"></circle><circle r="5" cx="1129" cy="-82.94" fill="#132e65"></circle><circle r="5" cx="1099.34" cy="73.47" fill="#132e65"></circle><circle r="5" cx="1094.44" cy="214.83" fill="#132e65"></circle><circle r="5" cx="1129.55" cy="376.51" fill="#132e65"></circle><circle r="5" cx="1152.61" cy="561.28" fill="#132e65"></circle><circle r="5" cx="1130.28" cy="647.31" fill="#132e65"></circle><circle r="5" cx="1279.01" cy="-101.71" fill="#132e65"></circle><circle r="5" cx="1272.88" cy="52.02" fill="#132e65"></circle><circle r="5" cx="1260.41" cy="377.88" fill="#132e65"></circle><circle r="5" cx="1277.78" cy="542.56" fill="#132e65"></circle><circle r="5" cx="1454.13" cy="-52.74" fill="#132e65"></circle><circle r="5" cx="1442.62" cy="50.73" fill="#132e65"></circle><circle r="5" cx="1426.47" cy="191.4" fill="#132e65"></circle><circle r="5" cx="1437.67" cy="349.3" fill="#132e65"></circle><circle r="5" cx="1432" cy="512.77" fill="#132e65"></circle><circle r="5" cx="1423.65" cy="655.1" fill="#132e65"></circle><circle r="5" cx="1548.16" cy="-86.44" fill="#132e65"></circle><circle r="5" cx="1576.28" cy="109.96" fill="#132e65"></circle><circle r="5" cx="1549.87" cy="191.56" fill="#132e65"></circle><circle r="5" cx="1610.26" cy="401.32" fill="#132e65"></circle><circle r="5" cx="1567.92" cy="497.75" fill="#132e65"></circle><circle r="5" cx="1571.26" cy="680.73" fill="#132e65"></circle><path d="M392.72 638.86L392.72 638.86" stroke="hsl(228.5, 77.2%, 51.5%)" stroke-width="1.5"></path><path d="M392.72 638.86L540.88 700.51" stroke="hsl(228.5, 77.2%, 51.5%)" stroke-width="1.5"></path><path d="M392.72 638.86L219.29 640.08" stroke="hsl(228.5, 77.2%, 51.5%)" stroke-width="1.5"></path><path d="M392.72 638.86L220.27 539.28" stroke="hsl(228.5, 77.2%, 51.5%)" stroke-width="1.5"></path><path d="M392.72 638.86L535.91 494.28" stroke="hsl(228.5, 77.2%, 51.5%)" stroke-width="1.5"></path><path d="M392.72 638.86L663.71 667.43" stroke="hsl(228.5, 77.2%, 51.5%)" stroke-width="1.5"></path><path d="M392.72 638.86L660.17 517.76" stroke="hsl(228.5, 77.2%, 51.5%)" stroke-width="1.5"></path><path d="M1274.24 76.38L1274.24 76.38" stroke="hsl(228.5, 77.2%, 51.5%)" stroke-width="1.5"></path><path d="M1274.24 76.38L1151.61 97.45" stroke="hsl(228.5, 77.2%, 51.5%)" stroke-width="1.5"></path><path d="M1274.24 76.38L1396.42 38.56" stroke="hsl(228.5, 77.2%, 51.5%)" stroke-width="1.5"></path><path d="M1274.24 76.38L1303.86 -79.36" stroke="hsl(228.5, 77.2%, 51.5%)" stroke-width="1.5"></path><path d="M1299.88 674.27L1299.88 674.27" stroke="hsl(228.5, 77.2%, 51.5%)" stroke-width="1.5"></path><path d="M1299.88 674.27L1119.08 670.06" stroke="hsl(228.5, 77.2%, 51.5%)" stroke-width="1.5"></path><path d="M1458.81 -49.36L1458.81 -49.36" stroke="hsl(228.5, 77.2%, 51.5%)" stroke-width="1.5"></path><path d="M1458.81 -49.36L1396.42 38.56" stroke="hsl(228.5, 77.2%, 51.5%)" stroke-width="1.5"></path><path d="M1458.81 -49.36L1574.97 -47.54" stroke="hsl(228.5, 77.2%, 51.5%)" stroke-width="1.5"></path><path d="M1440.88 397.64L1440.88 397.64" stroke="hsl(228.5, 77.2%, 51.5%)" stroke-width="1.5"></path><path d="M1440.88 397.64L1537.8 404.56" stroke="hsl(228.5, 77.2%, 51.5%)" stroke-width="1.5"></path><path d="M1440.88 397.64L1408.25 509.01" stroke="hsl(228.5, 77.2%, 51.5%)" stroke-width="1.5"></path><path d="M1440.88 397.64L1293.97 341.1" stroke="hsl(228.5, 77.2%, 51.5%)" stroke-width="1.5"></path><path d="M1440.88 397.64L1540.73 256.91" stroke="hsl(228.5, 77.2%, 51.5%)" stroke-width="1.5"></path><path d="M1440.88 397.64L1541.12 542.39" stroke="hsl(228.5, 77.2%, 51.5%)" stroke-width="1.5"></path><path d="M1440.88 397.64L1300.83 238.21" stroke="hsl(228.5, 77.2%, 51.5%)" stroke-width="1.5"></path><path d="M-48.1 547.12L-48.1 547.12" stroke="hsl(228.5, 77.2%, 51.5%)" stroke-width="1.5"></path><path d="M-48.1 547.12L-51.28 696.34" stroke="hsl(228.5, 77.2%, 51.5%)" stroke-width="1.5"></path><path d="M-48.1 547.12L74.55 680.65" stroke="hsl(228.5, 77.2%, 51.5%)" stroke-width="1.5"></path><path d="M-48.1 547.12L220.27 539.28" stroke="hsl(228.5, 77.2%, 51.5%)" stroke-width="1.5"></path><path d="M-48.1 547.12L219.29 640.08" stroke="hsl(228.5, 77.2%, 51.5%)" stroke-width="1.5"></path><path d="M-51.28 696.34L-51.28 696.34" stroke="hsl(228.5, 77.2%, 51.5%)" stroke-width="1.5"></path><path d="M-51.28 696.34L74.55 680.65" stroke="hsl(228.5, 77.2%, 51.5%)" stroke-width="1.5"></path><path d="M74.55 680.65L74.55 680.65" stroke="hsl(228.5, 77.2%, 51.5%)" stroke-width="1.5"></path><path d="M74.55 680.65L219.29 640.08" stroke="hsl(228.5, 77.2%, 51.5%)" stroke-width="1.5"></path><path d="M220.27 539.28L220.27 539.28" stroke="hsl(228.5, 77.2%, 51.5%)" stroke-width="1.5"></path><path d="M220.27 539.28L219.29 640.08" stroke="hsl(228.5, 77.2%, 51.5%)" stroke-width="1.5"></path><path d="M220.27 539.28L74.55 680.65" stroke="hsl(228.5, 77.2%, 51.5%)" stroke-width="1.5"></path><path d="M220.27 539.28L-51.28 696.34" stroke="hsl(228.5, 77.2%, 51.5%)" stroke-width="1.5"></path><path d="M220.27 539.28L535.91 494.28" stroke="hsl(228.5, 77.2%, 51.5%)" stroke-width="1.5"></path><path d="M219.29 640.08L219.29 640.08" stroke="hsl(228.5, 77.2%, 51.5%)" stroke-width="1.5"></path><path d="M535.91 494.28L535.91 494.28" stroke="hsl(228.5, 77.2%, 51.5%)" stroke-width="1.5"></path><path d="M535.91 494.28L660.17 517.76" stroke="hsl(228.5, 77.2%, 51.5%)" stroke-width="1.5"></path><path d="M540.88 700.51L540.88 700.51" stroke="hsl(228.5, 77.2%, 51.5%)" stroke-width="1.5"></path><path d="M540.88 700.51L663.71 667.43" stroke="hsl(228.5, 77.2%, 51.5%)" stroke-width="1.5"></path><path d="M540.88 700.51L535.91 494.28" stroke="hsl(228.5, 77.2%, 51.5%)" stroke-width="1.5"></path><path d="M696.8 365.57L696.8 365.57" stroke="hsl(228.5, 77.2%, 51.5%)" stroke-width="1.5"></path><path d="M696.8 365.57L832.41 357.02" stroke="hsl(228.5, 77.2%, 51.5%)" stroke-width="1.5"></path><path d="M696.8 365.57L660.17 517.76" stroke="hsl(228.5, 77.2%, 51.5%)" stroke-width="1.5"></path><path d="M696.8 365.57L792.98 540.42" stroke="hsl(228.5, 77.2%, 51.5%)" stroke-width="1.5"></path><path d="M696.8 365.57L535.91 494.28" stroke="hsl(228.5, 77.2%, 51.5%)" stroke-width="1.5"></path><path d="M696.8 365.57L663.71 667.43" stroke="hsl(228.5, 77.2%, 51.5%)" stroke-width="1.5"></path><path d="M696.8 365.57L999.37 411.33" stroke="hsl(228.5, 77.2%, 51.5%)" stroke-width="1.5"></path><path d="M660.17 517.76L660.17 517.76" stroke="hsl(228.5, 77.2%, 51.5%)" stroke-width="1.5"></path><path d="M660.17 517.76L792.98 540.42" stroke="hsl(228.5, 77.2%, 51.5%)" stroke-width="1.5"></path><path d="M660.17 517.76L663.71 667.43" stroke="hsl(228.5, 77.2%, 51.5%)" stroke-width="1.5"></path><path d="M663.71 667.43L663.71 667.43" stroke="hsl(228.5, 77.2%, 51.5%)" stroke-width="1.5"></path><path d="M663.71 667.43L838.42 687.17" stroke="hsl(228.5, 77.2%, 51.5%)" stroke-width="1.5"></path><path d="M832.41 357.02L832.41 357.02" stroke="hsl(228.5, 77.2%, 51.5%)" stroke-width="1.5"></path><path d="M832.41 357.02L999.37 411.33" stroke="hsl(228.5, 77.2%, 51.5%)" stroke-width="1.5"></path><path d="M832.41 357.02L792.98 540.42" stroke="hsl(228.5, 77.2%, 51.5%)" stroke-width="1.5"></path><path d="M832.41 357.02L660.17 517.76" stroke="hsl(228.5, 77.2%, 51.5%)" stroke-width="1.5"></path><path d="M792.98 540.42L792.98 540.42" stroke="hsl(228.5, 77.2%, 51.5%)" stroke-width="1.5"></path><path d="M792.98 540.42L838.42 687.17" stroke="hsl(228.5, 77.2%, 51.5%)" stroke-width="1.5"></path><path d="M838.42 687.17L838.42 687.17" stroke="hsl(228.5, 77.2%, 51.5%)" stroke-width="1.5"></path><path d="M838.42 687.17L946.73 670.83" stroke="hsl(228.5, 77.2%, 51.5%)" stroke-width="1.5"></path><path d="M999.37 411.33L999.37 411.33" stroke="hsl(228.5, 77.2%, 51.5%)" stroke-width="1.5"></path><path d="M999.37 411.33L1100.67 395.7" stroke="hsl(228.5, 77.2%, 51.5%)" stroke-width="1.5"></path><path d="M999.37 411.33L996.08 555.48" stroke="hsl(228.5, 77.2%, 51.5%)" stroke-width="1.5"></path><path d="M996.08 555.48L996.08 555.48" stroke="hsl(228.5, 77.2%, 51.5%)" stroke-width="1.5"></path><path d="M996.08 555.48L946.73 670.83" stroke="hsl(228.5, 77.2%, 51.5%)" stroke-width="1.5"></path><path d="M996.08 555.48L1135.91 541.92" stroke="hsl(228.5, 77.2%, 51.5%)" stroke-width="1.5"></path><path d="M996.08 555.48L1119.08 670.06" stroke="hsl(228.5, 77.2%, 51.5%)" stroke-width="1.5"></path><path d="M996.08 555.48L1100.67 395.7" stroke="hsl(228.5, 77.2%, 51.5%)" stroke-width="1.5"></path><path d="M946.73 670.83L946.73 670.83" stroke="hsl(228.5, 77.2%, 51.5%)" stroke-width="1.5"></path><path d="M946.73 670.83L1119.08 670.06" stroke="hsl(228.5, 77.2%, 51.5%)" stroke-width="1.5"></path><path d="M946.73 670.83L792.98 540.42" stroke="hsl(228.5, 77.2%, 51.5%)" stroke-width="1.5"></path><path d="M946.73 670.83L1135.91 541.92" stroke="hsl(228.5, 77.2%, 51.5%)" stroke-width="1.5"></path><path d="M1151.61 97.45L1151.61 97.45" stroke="hsl(228.5, 77.2%, 51.5%)" stroke-width="1.5"></path><path d="M1151.61 97.45L1150.45 260.73" stroke="hsl(228.5, 77.2%, 51.5%)" stroke-width="1.5"></path><path d="M1150.45 260.73L1150.45 260.73" stroke="hsl(228.5, 77.2%, 51.5%)" stroke-width="1.5"></path><path d="M1150.45 260.73L1100.67 395.7" stroke="hsl(228.5, 77.2%, 51.5%)" stroke-width="1.5"></path><path d="M1150.45 260.73L1300.83 238.21" stroke="hsl(228.5, 77.2%, 51.5%)" stroke-width="1.5"></path><path d="M1100.67 395.7L1100.67 395.7" stroke="hsl(228.5, 77.2%, 51.5%)" stroke-width="1.5"></path><path d="M1100.67 395.7L1135.91 541.92" stroke="hsl(228.5, 77.2%, 51.5%)" stroke-width="1.5"></path><path d="M1135.91 541.92L1135.91 541.92" stroke="hsl(228.5, 77.2%, 51.5%)" stroke-width="1.5"></path><path d="M1135.91 541.92L1237.52 502.05" stroke="hsl(228.5, 77.2%, 51.5%)" stroke-width="1.5"></path><path d="M1135.91 541.92L1119.08 670.06" stroke="hsl(228.5, 77.2%, 51.5%)" stroke-width="1.5"></path><path d="M1135.91 541.92L999.37 411.33" stroke="hsl(228.5, 77.2%, 51.5%)" stroke-width="1.5"></path><path d="M1119.08 670.06L1119.08 670.06" stroke="hsl(228.5, 77.2%, 51.5%)" stroke-width="1.5"></path><path d="M1303.86 -79.36L1303.86 -79.36" stroke="hsl(228.5, 77.2%, 51.5%)" stroke-width="1.5"></path><path d="M1303.86 -79.36L1396.42 38.56" stroke="hsl(228.5, 77.2%, 51.5%)" stroke-width="1.5"></path><path d="M1303.86 -79.36L1458.81 -49.36" stroke="hsl(228.5, 77.2%, 51.5%)" stroke-width="1.5"></path><path d="M1303.86 -79.36L1151.61 97.45" stroke="hsl(228.5, 77.2%, 51.5%)" stroke-width="1.5"></path><path d="M1300.83 238.21L1300.83 238.21" stroke="hsl(228.5, 77.2%, 51.5%)" stroke-width="1.5"></path><path d="M1300.83 238.21L1293.97 341.1" stroke="hsl(228.5, 77.2%, 51.5%)" stroke-width="1.5"></path><path d="M1300.83 238.21L1274.24 76.38" stroke="hsl(228.5, 77.2%, 51.5%)" stroke-width="1.5"></path><path d="M1293.97 341.1L1293.97 341.1" stroke="hsl(228.5, 77.2%, 51.5%)" stroke-width="1.5"></path><path d="M1293.97 341.1L1150.45 260.73" stroke="hsl(228.5, 77.2%, 51.5%)" stroke-width="1.5"></path><path d="M1237.52 502.05L1237.52 502.05" stroke="hsl(228.5, 77.2%, 51.5%)" stroke-width="1.5"></path><path d="M1237.52 502.05L1293.97 341.1" stroke="hsl(228.5, 77.2%, 51.5%)" stroke-width="1.5"></path><path d="M1237.52 502.05L1408.25 509.01" stroke="hsl(228.5, 77.2%, 51.5%)" stroke-width="1.5"></path><path d="M1237.52 502.05L1100.67 395.7" stroke="hsl(228.5, 77.2%, 51.5%)" stroke-width="1.5"></path><path d="M1237.52 502.05L1299.88 674.27" stroke="hsl(228.5, 77.2%, 51.5%)" stroke-width="1.5"></path><path d="M1237.52 502.05L1119.08 670.06" stroke="hsl(228.5, 77.2%, 51.5%)" stroke-width="1.5"></path><path d="M1396.42 38.56L1396.42 38.56" stroke="hsl(228.5, 77.2%, 51.5%)" stroke-width="1.5"></path><path d="M1408.25 509.01L1408.25 509.01" stroke="hsl(228.5, 77.2%, 51.5%)" stroke-width="1.5"></path><path d="M1408.25 509.01L1541.12 542.39" stroke="hsl(228.5, 77.2%, 51.5%)" stroke-width="1.5"></path><path d="M1408.25 509.01L1537.8 404.56" stroke="hsl(228.5, 77.2%, 51.5%)" stroke-width="1.5"></path><path d="M1574.97 -47.54L1574.97 -47.54" stroke="hsl(228.5, 77.2%, 51.5%)" stroke-width="1.5"></path><path d="M1574.97 -47.54L1396.42 38.56" stroke="hsl(228.5, 77.2%, 51.5%)" stroke-width="1.5"></path><path d="M1574.97 -47.54L1303.86 -79.36" stroke="hsl(228.5, 77.2%, 51.5%)" stroke-width="1.5"></path><path d="M1574.97 -47.54L1540.73 256.91" stroke="hsl(228.5, 77.2%, 51.5%)" stroke-width="1.5"></path><path d="M1540.73 256.91L1540.73 256.91" stroke="hsl(228.5, 77.2%, 51.5%)" stroke-width="1.5"></path><path d="M1540.73 256.91L1537.8 404.56" stroke="hsl(228.5, 77.2%, 51.5%)" stroke-width="1.5"></path><path d="M1540.73 256.91L1300.83 238.21" stroke="hsl(228.5, 77.2%, 51.5%)" stroke-width="1.5"></path><path d="M1540.73 256.91L1293.97 341.1" stroke="hsl(228.5, 77.2%, 51.5%)" stroke-width="1.5"></path><path d="M1537.8 404.56L1537.8 404.56" stroke="hsl(228.5, 77.2%, 51.5%)" stroke-width="1.5"></path><path d="M1537.8 404.56L1541.12 542.39" stroke="hsl(228.5, 77.2%, 51.5%)" stroke-width="1.5"></path><path d="M1541.12 542.39L1541.12 542.39" stroke="hsl(228.5, 77.2%, 51.5%)" stroke-width="1.5"></path><path d="M1541.12 542.39L1572.02 648.69" stroke="hsl(228.5, 77.2%, 51.5%)" stroke-width="1.5"></path><path d="M1572.02 648.69L1572.02 648.69" stroke="hsl(228.5, 77.2%, 51.5%)" stroke-width="1.5"></path><path d="M1572.02 648.69L1408.25 509.01" stroke="hsl(228.5, 77.2%, 51.5%)" stroke-width="1.5"></path><path d="M1572.02 648.69L1537.8 404.56" stroke="hsl(228.5, 77.2%, 51.5%)" stroke-width="1.5"></path><circle r="25" cx="392.72" cy="638.86" fill="url(#SvgjsRadialGradient1190)"></circle><circle r="25" cx="1274.24" cy="76.38" fill="url(#SvgjsRadialGradient1190)"></circle><circle r="25" cx="1299.88" cy="674.27" fill="url(#SvgjsRadialGradient1190)"></circle><circle r="25" cx="1458.81" cy="-49.36" fill="url(#SvgjsRadialGradient1190)"></circle><circle r="25" cx="1440.88" cy="397.64" fill="url(#SvgjsRadialGradient1190)"></circle><circle r="5" cx="-48.1" cy="547.12" fill="#8b9ad9"></circle><circle r="5" cx="-51.28" cy="696.34" fill="#8b9ad9"></circle><circle r="5" cx="74.55" cy="680.65" fill="#8b9ad9"></circle><circle r="5" cx="220.27" cy="539.28" fill="#8b9ad9"></circle><circle r="5" cx="219.29" cy="640.08" fill="#8b9ad9"></circle><circle r="5" cx="535.91" cy="494.28" fill="#8b9ad9"></circle><circle r="5" cx="540.88" cy="700.51" fill="#8b9ad9"></circle><circle r="5" cx="696.8" cy="365.57" fill="#8b9ad9"></circle><circle r="5" cx="660.17" cy="517.76" fill="#8b9ad9"></circle><circle r="5" cx="663.71" cy="667.43" fill="#8b9ad9"></circle><circle r="5" cx="832.41" cy="357.02" fill="#8b9ad9"></circle><circle r="5" cx="792.98" cy="540.42" fill="#8b9ad9"></circle><circle r="5" cx="838.42" cy="687.17" fill="#8b9ad9"></circle><circle r="5" cx="999.37" cy="411.33" fill="#8b9ad9"></circle><circle r="5" cx="996.08" cy="555.48" fill="#8b9ad9"></circle><circle r="5" cx="946.73" cy="670.83" fill="#8b9ad9"></circle><circle r="5" cx="1151.61" cy="97.45" fill="#8b9ad9"></circle><circle r="5" cx="1150.45" cy="260.73" fill="#8b9ad9"></circle><circle r="5" cx="1100.67" cy="395.7" fill="#8b9ad9"></circle><circle r="5" cx="1135.91" cy="541.92" fill="#8b9ad9"></circle><circle r="5" cx="1119.08" cy="670.06" fill="#8b9ad9"></circle><circle r="5" cx="1303.86" cy="-79.36" fill="#8b9ad9"></circle><circle r="5" cx="1300.83" cy="238.21" fill="#8b9ad9"></circle><circle r="5" cx="1293.97" cy="341.1" fill="#8b9ad9"></circle><circle r="5" cx="1237.52" cy="502.05" fill="#8b9ad9"></circle><circle r="5" cx="1396.42" cy="38.56" fill="#8b9ad9"></circle><circle r="5" cx="1408.25" cy="509.01" fill="#8b9ad9"></circle><circle r="5" cx="1574.97" cy="-47.54" fill="#8b9ad9"></circle><circle r="5" cx="1540.73" cy="256.91" fill="#8b9ad9"></circle><circle r="5" cx="1537.8" cy="404.56" fill="#8b9ad9"></circle><circle r="5" cx="1541.12" cy="542.39" fill="#8b9ad9"></circle><circle r="5" cx="1572.02" cy="648.69" fill="#8b9ad9"></circle></g><defs><mask id="SvgjsMask1188"><rect width="1440" height="560" fill="#ffffff"></rect></mask><radialGradient cx="0%" cy="0%" r="1545.06" gradientUnits="userSpaceOnUse" id="SvgjsRadialGradient1189"><stop stop-color="#0e2a47" offset="0"></stop><stop stop-color="rgba(20, 33, 61, 1)" offset="0.42"></stop><stop stop-color="rgba(20, 33, 61, 1)" offset="1"></stop></radialGradient><radialGradient id="SvgjsRadialGradient1190"><stop stop-color="#ffffff" offset="0.1"></stop><stop stop-color="#1735b3" offset="0.2"></stop><stop stop-color="rgba(23, 53, 179, 0)" offset="1"></stop></radialGradient></defs></svg>